<svg fill="none" height="495" viewBox="0 0 945 495" width="945" xmlns="http://www.w3.org/2000/svg" xmlns:xlink="http://www.w3.org/1999/xlink"><filter id="filter0_f_1535_15000" color-interpolation-filters="sRGB" filterUnits="userSpaceOnUse" height="314" width="317" x="664" y="8"><feFlood flood-opacity="0" result="BackgroundImageFix"/><feBlend in="SourceGraphic" in2="BackgroundImageFix" mode="normal" result="shape"/><feGaussianBlur result="effect1_foregroundBlur_1535_15000" stdDeviation="10"/></filter><filter id="filter1_f_1535_15000" color-interpolation-filters="sRGB" filterUnits="userSpaceOnUse" height="145" width="301" x="665" y="93"><feFlood flood-opacity="0" result="BackgroundImageFix"/><feBlend in="SourceGraphic" in2="BackgroundImageFix" mode="normal" result="shape"/><feGaussianBlur result="effect1_foregroundBlur_1535_15000" stdDeviation="6"/></filter><linearGradient id="paint0_linear_1535_15000" gradientUnits="userSpaceOnUse" x1="536.022" x2="410.237" y1="541.496" y2="-40.6678"><stop offset="0" stop-color="#4687ff"/><stop offset=".0721048" stop-color="#4a8aff"/><stop offset=".6703" stop-color="#6b9fff"/><stop offset="1" stop-color="#77a7ff"/></linearGradient><linearGradient id="lg1"><stop offset=".00162002" stop-color="#4873c4" stop-opacity=".9"/><stop offset=".9349" stop-color="#305eb2" stop-opacity="0"/></linearGradient><radialGradient id="paint1_radial_1535_15000" cx="0" cy="0" gradientTransform="matrix(-117.98 0 0 -14.4903 169.083 443.61)" gradientUnits="userSpaceOnUse" r="1" xlink:href="#lg1"/><radialGradient id="paint2_radial_1535_15000" cx="0" cy="0" gradientTransform="matrix(-52.9908 0 0 -11.992 308.037 446.091)" gradientUnits="userSpaceOnUse" r="1" xlink:href="#lg1"/><radialGradient id="paint3_radial_1535_15000" cx="0" cy="0" gradientTransform="matrix(-56.9901 0 0 -11.992 405.04 446.091)" gradientUnits="userSpaceOnUse" r="1" xlink:href="#lg1"/><linearGradient id="lg2"><stop offset="0" stop-color="#f6f9ff"/><stop offset="1" stop-color="#e0ebff" stop-opacity=".4"/></linearGradient><linearGradient id="paint4_linear_1535_15000" gradientUnits="userSpaceOnUse" x1="653.5" x2="915" xlink:href="#lg2" y1="165" y2="193"/><linearGradient id="paint5_linear_1535_15000" gradientUnits="userSpaceOnUse" x1="646.5" x2="896.312" xlink:href="#lg2" y1="165.5" y2="226.071"/><linearGradient id="lg3"><stop offset="0" stop-color="#bdd4ff"/><stop offset="1" stop-color="#e7efff"/></linearGradient><linearGradient id="paint6_linear_1535_15000" gradientUnits="userSpaceOnUse" x1="306.105" x2="320.383" xlink:href="#lg3" y1="321" y2="108.133"/><linearGradient id="paint7_linear_1535_15000" gradientUnits="userSpaceOnUse" x1="310.793" x2="324.068" y1="155.581" y2="72.81"><stop offset="0" stop-color="#ffffff" stop-opacity="0"/><stop offset="1" stop-color="#ffffff" stop-opacity=".8"/></linearGradient><linearGradient id="lg4"><stop offset="0" stop-color="#ffe8e1"/><stop offset=".4676" stop-color="#fadacd"/><stop offset=".8376" stop-color="#f6cfbe"/></linearGradient><linearGradient id="paint8_linear_1535_15000" gradientUnits="userSpaceOnUse" x1="314.548" x2="315.621" xlink:href="#lg4" y1="435.509" y2="392.548"/><linearGradient id="paint9_linear_1535_15000" gradientUnits="userSpaceOnUse" x1="395.568" x2="377.859" xlink:href="#lg4" y1="431.885" y2="403.283"/><linearGradient id="paint10_linear_1535_15000" gradientUnits="userSpaceOnUse" x1="309.737" x2="322.97" xlink:href="#lg3" y1="33.1073" y2="357.328"/><linearGradient id="paint11_linear_1535_15000" gradientUnits="userSpaceOnUse" x1="370.165" x2="383.399" xlink:href="#lg3" y1="30.6408" y2="354.861"/><linearGradient id="paint12_linear_1535_15000" gradientUnits="userSpaceOnUse" x1="401.549" x2="402.244" xlink:href="#lg3" y1="440.59" y2="429.527"/><linearGradient id="paint13_linear_1535_15000" gradientUnits="userSpaceOnUse" x1="314.592" x2="314.592" xlink:href="#lg3" y1="443.931" y2="426.228"/><linearGradient id="lg5"><stop offset="0" stop-color="#77a7ff"/><stop offset="1" stop-color="#bdd4ff" stop-opacity="0"/></linearGradient><radialGradient id="paint14_radial_1535_15000" cx="321.179" cy="333.451" gradientUnits="userSpaceOnUse" r="57.8836" xlink:href="#lg5"/><radialGradient id="paint15_radial_1535_15000" cx="381.618" cy="343.097" gradientUnits="userSpaceOnUse" r="51.8845" xlink:href="#lg5"/><linearGradient id="paint16_linear_1535_15000" gradientUnits="userSpaceOnUse" x1="497.856" x2="497.856" xlink:href="#lg3" y1="35.6164" y2="390.164"/><linearGradient id="lg6"><stop offset="0" stop-color="#bdd4ff" stop-opacity="0"/><stop offset="1" stop-color="#e7efff"/></linearGradient><linearGradient id="paint17_linear_1535_15000" gradientUnits="userSpaceOnUse" x1="507.273" x2="520.918" xlink:href="#lg6" y1="262.165" y2="262.012"/><radialGradient id="paint18_radial_1535_15000" cx="515.064" cy="233.816" gradientUnits="userSpaceOnUse" r="51.8392" xlink:href="#lg5"/><linearGradient id="paint19_linear_1535_15000" gradientUnits="userSpaceOnUse" x1="194.997" x2="219.688" y1="110.477" y2="81.1927"><stop offset="0" stop-color="#ffffff" stop-opacity="0"/><stop offset=".509" stop-color="#ffffff" stop-opacity=".8"/><stop offset="1" stop-color="#ffffff" stop-opacity="0"/></linearGradient><linearGradient id="paint20_linear_1535_15000" gradientUnits="userSpaceOnUse" x1="350.665" x2="350.665" xlink:href="#lg3" y1="35.6164" y2="390.164"/><radialGradient id="paint21_radial_1535_15000" cx="214.817" cy="91.0666" gradientUnits="userSpaceOnUse" r="234.535"><stop offset="0" stop-color="#ffffff" stop-opacity=".8"/><stop offset="1" stop-color="#ffffff" stop-opacity="0"/></radialGradient><linearGradient id="lg7"><stop offset="0" stop-color="#0e1b33"/><stop offset=".2413" stop-color="#1c2539"/><stop offset=".6987" stop-color="#313441"/><stop offset=".9981" stop-color="#393944"/><stop offset="1" stop-color="#393944"/></linearGradient><linearGradient id="paint22_linear_1535_15000" gradientUnits="userSpaceOnUse" x1="198.628" x2="199.378" xlink:href="#lg7" y1="335.129" y2="335.129"/><linearGradient id="paint23_linear_1535_15000" gradientUnits="userSpaceOnUse" x1="186.149" x2="177.245" xlink:href="#lg3" y1="251.663" y2="280.961"/><linearGradient id="paint24_linear_1535_15000" gradientUnits="userSpaceOnUse" x1="157.606" x2="171.883" y1="311.04" y2="98.173"><stop offset="0" stop-color="#bdd4ff"/><stop offset=".7247" stop-color="#dbe8ff"/><stop offset="1" stop-color="#e7efff"/></linearGradient><radialGradient id="paint25_radial_1535_15000" cx="0" cy="0" gradientTransform="matrix(39.33506111 10.79746384 -2.49134919 9.07596209 145.832 270.175)" gradientUnits="userSpaceOnUse" r="1" xlink:href="#lg5"/><linearGradient id="paint26_linear_1535_15000" gradientUnits="userSpaceOnUse" x1="171.284" x2="155.071" xlink:href="#lg6" y1="246.456" y2="234.383"/><linearGradient id="paint27_linear_1535_15000" gradientUnits="userSpaceOnUse" x1="166.154" x2="160.036" xlink:href="#lg6" y1="197.719" y2="268.468"/><linearGradient id="lg8"><stop offset="0" stop-color="#f6cfbe"/><stop offset="1" stop-color="#ffe8e1"/></linearGradient><linearGradient id="paint28_linear_1535_15000" gradientUnits="userSpaceOnUse" x1="201.304" x2="194.798" xlink:href="#lg8" y1="272.046" y2="261.79"/><linearGradient id="paint29_linear_1535_15000" gradientUnits="userSpaceOnUse" x1="192.438" x2="199.532" xlink:href="#lg8" y1="275.753" y2="266.531"/><linearGradient id="paint30_linear_1535_15000" gradientUnits="userSpaceOnUse" x1="164.388" x2="185.703" xlink:href="#lg7" y1="342.128" y2="342.128"/><linearGradient id="paint31_linear_1535_15000" gradientUnits="userSpaceOnUse" x1="117.909" x2="144.475" xlink:href="#lg7" y1="432.244" y2="432.244"/><linearGradient id="paint32_linear_1535_15000" gradientUnits="userSpaceOnUse" x1="164.735" x2="162.397" y1="433.831" y2="342.65"><stop offset="0" stop-color="#f86e80"/><stop offset=".9987" stop-color="#ffd4d8"/><stop offset="1" stop-color="#ffd4d8"/></linearGradient><linearGradient id="lg9"><stop offset="0" stop-color="#f64f64"/><stop offset="1" stop-color="#f86e80"/></linearGradient><linearGradient id="paint33_linear_1535_15000" gradientUnits="userSpaceOnUse" x1="261.541" x2="68.1706" xlink:href="#lg9" y1="394.252" y2="394.943"/><linearGradient id="paint34_linear_1535_15000" gradientUnits="userSpaceOnUse" x1="169.364" x2="250.867" xlink:href="#lg7" y1="403.835" y2="403.835"/><linearGradient id="paint35_linear_1535_15000" gradientUnits="userSpaceOnUse" x1="210" x2="210" y1="266" y2="440.5"><stop offset="0" stop-color="#305eb2"/><stop offset="1" stop-color="#233b67"/></linearGradient><linearGradient id="paint36_linear_1535_15000" gradientUnits="userSpaceOnUse" x1="182.844" x2="237.388" y1="403.835" y2="403.835"><stop offset="0" stop-color="#edf3ff"/><stop offset=".228" stop-color="#f0f5ff"/><stop offset=".9981" stop-color="#f8f8fe"/><stop offset="1" stop-color="#f8f8fe"/></linearGradient><linearGradient id="paint37_linear_1535_15000" gradientUnits="userSpaceOnUse" x1="192.293" x2="208.783" xlink:href="#lg7" y1="392.234" y2="392.234"/><linearGradient id="paint38_linear_1535_15000" gradientUnits="userSpaceOnUse" x1="211.448" x2="227.939" xlink:href="#lg7" y1="415.436" y2="415.436"/><linearGradient id="paint39_linear_1535_15000" gradientUnits="userSpaceOnUse" x1="212.759" x2="230.675" xlink:href="#lg7" y1="394.257" y2="394.257"/><linearGradient id="paint40_linear_1535_15000" gradientUnits="userSpaceOnUse" x1="189.557" x2="207.473" xlink:href="#lg7" y1="413.413" y2="413.413"/><linearGradient id="paint41_linear_1535_15000" gradientUnits="userSpaceOnUse" x1="261.567" x2="68.196" xlink:href="#lg9" y1="401.419" y2="402.111"/><linearGradient id="paint42_linear_1535_15000" gradientUnits="userSpaceOnUse" x1="125.863" x2="136.521" xlink:href="#lg7" y1="439.571" y2="439.571"/><linearGradient id="paint43_linear_1535_15000" gradientUnits="userSpaceOnUse" x1="360.974" x2="386.163" y1="296.704" y2="296.704"><stop offset="0" stop-color="#0e1b33"/><stop offset=".9981" stop-color="#393944"/><stop offset="1" stop-color="#233b67"/></linearGradient><linearGradient id="paint44_linear_1535_15000" gradientUnits="userSpaceOnUse" x1="558" x2="581" y1="159" y2="255.5"><stop offset="0" stop-color="#305eb2"/><stop offset=".619572" stop-color="#233b67"/></linearGradient><linearGradient id="lg10"><stop offset="0" stop-color="#233b67"/><stop offset="1" stop-color="#0e1b33"/></linearGradient><linearGradient id="paint45_linear_1535_15000" gradientUnits="userSpaceOnUse" x1="642.3" x2="642.3" xlink:href="#lg10" y1="156" y2="193.2"/><linearGradient id="paint46_linear_1535_15000" gradientUnits="userSpaceOnUse" x1="665.5" x2="665.5" xlink:href="#lg10" y1="121.9" y2="207"/><linearGradient id="paint47_linear_1535_15000" gradientUnits="userSpaceOnUse" x1="667.038" x2="686.774" xlink:href="#lg9" y1="164.348" y2="164.348"/><linearGradient id="paint48_linear_1535_15000" gradientUnits="userSpaceOnUse" x1="515.594" x2="513.397" xlink:href="#lg8" y1="231.873" y2="253.038"/><linearGradient id="paint49_linear_1535_15000" gradientUnits="userSpaceOnUse" x1="521.248" x2="513.532" xlink:href="#lg8" y1="241.226" y2="235.825"/><radialGradient id="paint50_radial_1535_15000" cx="228.294" cy="105.401" gradientUnits="userSpaceOnUse" r="55.0016"><stop offset="0" stop-color="#f7f7f7"/><stop offset=".8654" stop-color="#f7f7f7" stop-opacity="0"/></radialGradient><clipPath id="clip0_1535_15000"><path d="M0 0H945V495H0Z"/></clipPath><g clip-path="url(#clip0_1535_15000)"><path d="M947-2H-2V497H947V-2Z" fill="url(#paint0_linear_1535_15000)"/><path d="M169 458C234.17 458 287 451.508 287 443.5 287 435.492 234.17 429 169 429 103.83 429 51 435.492 51 443.5 51 451.508 103.83 458 169 458Z" fill="url(#paint1_radial_1535_15000)" opacity=".6"/><path d="M308 458C337.271 458 361 452.627 361 446 361 439.373 337.271 434 308 434 278.729 434 255 439.373 255 446 255 452.627 278.729 458 308 458Z" fill="url(#paint2_radial_1535_15000)" opacity=".4"/><path d="M405 458C436.48 458 462 452.627 462 446 462 439.373 436.48 434 405 434 373.52 434 348 439.373 348 446 348 452.627 373.52 458 405 458Z" fill="url(#paint3_radial_1535_15000)" opacity=".4"/><g filter="url(#filter0_f_1535_15000)"><path d="M684 117 948.5 28 961 302 684 216.5V117Z" fill="url(#paint4_linear_1535_15000)" fill-opacity=".8"/></g><g filter="url(#filter1_f_1535_15000)"><path d="M677 144.303 941.5 105 954 226 677 188.243V144.303Z" fill="url(#paint5_linear_1535_15000)"/></g><path d="M435.6 66.3C435.6 66.3 425.7 58.9 419.2 58.9H187.1C174.9 58.9 165 68.8 165 81V313.1C165 319.3 167.6 325 171.8 329L171.7 329.2 223.8 366 289.4 335.3H419.2C431.4 335.3 441.3 325.4 441.3 313.2V123.6L478.6 95.3 435.6 66.3Z" fill="url(#paint6_linear_1535_15000)"/><path d="M435.6 66.3C435.6 66.3 425.7 58.9 419.2 58.9H187.1C174.9 58.9 165 68.8 165 81V313.1C165 319.3 167.6 325 171.8 329L171.7 329.2 223.8 366 289.4 335.3H419.2C431.4 335.3 441.3 325.4 441.3 313.2V123.6L478.6 95.3 435.6 66.3Z" fill="url(#paint7_linear_1535_15000)" opacity=".79"/><path d="M309.3 428.3 320.6 428.6 321.6 409.6 308.6 410.4 309.3 428.3Z" fill="url(#paint8_linear_1535_15000)"/><path d="M381.4 410.5 380.9 431.7 396 432.1 394.5 406.9 381.4 410.5Z" fill="url(#paint9_linear_1535_15000)"/><path d="M312.7 253.2C312.7 253.2 306.3 253.1 306 268.7 305.9 276.8 304.8 292.2 305.4 303.8 306 315.8 308.1 332.4 307.9 339.4 307.3 362.3 306.1 393.1 308.1 412.4 308.1 412.4 314.9 415.3 322.2 412.6 322.2 412.6 331.4 352.8 333 347.5 334.6 342.1 337.2 278.4 337.2 278.4L312.7 253.2Z" fill="url(#paint10_linear_1535_15000)"/><path d="M361 274.9C361 274.9 380.2 338.6 379.9 346.7 379.6 354.8 378.7 383.7 380.7 411.9 380.7 411.9 392.1 415.8 396.5 411.6 396.5 411.6 401.6 353 402.2 348.4 402.6 345.3 395.4 272.8 395.4 272.8L361 274.9Z" fill="url(#paint11_linear_1535_15000)"/><path d="M396 421C396.8 420.6 397.9 420.9 398.4 421.6 400.1 423.8 404.8 429.9 410.7 430.9 418.5 432.1 424.8 432.4 424.4 439.2 424.3 440.5 423.5 442.6 423.5 442.6L378.2 441.3C378.2 441.3 378.3 434.4 378.9 433 379.3 431.9 379.5 430.2 379.7 429.2 379.7 428.7 380.3 428.4 380.7 428.6 383.1 429.5 388.9 432.1 392.4 429.7 396.3 426.9 391.9 423 396 421Z" fill="url(#paint12_linear_1535_15000)"/><path d="M305 436.7C305.9 433.9 308 426.5 308.7 424 308.9 423.4 309.3 422.9 309.9 422.7 312.2 421.7 315.1 421.7 315.1 421.7 315.1 421.7 318 421.9 320.3 423 320.9 423.3 321.3 423.8 321.4 424.4 322 427 323.7 434.5 324.5 437.3 325.1 439.6 325.2 441.4 325.3 442.3 325.3 442.7 325 443.1 324.6 443.2 323 443.5 319 444 314.7 443.9 310.4 443.8 306.4 443 304.9 442.7 304.5 442.6 304.2 442.2 304.2 441.8 304.1 440.7 304.3 439 305 436.7Z" fill="url(#paint13_linear_1535_15000)"/><path d="M312.7 253.2C312.7 253.2 306.3 253.1 306 268.7 305.9 276.8 304.8 292.2 305.4 303.8 306 315.8 308.1 332.4 307.9 339.4 307.3 362.3 306.1 393.1 308.1 412.4 308.1 412.4 314.9 415.3 322.2 412.6 322.2 412.6 331.4 352.8 333 347.5 334.6 342.1 337.2 278.4 337.2 278.4L312.7 253.2Z" fill="url(#paint14_radial_1535_15000)"/><path d="M361 274.9C361 274.9 380.2 338.6 379.9 346.7 379.6 354.8 378.7 383.7 380.7 411.9 380.7 411.9 392.1 415.8 396.5 411.6 396.5 411.6 401.6 353 402.2 348.4 402.6 345.3 395.4 272.8 395.4 272.8L361 274.9Z" fill="url(#paint15_radial_1535_15000)"/><path d="M506.6 252.2 520.9 252.6V293.7L520.7 294.2C520.6 300.1 515.7 304.7 509.8 304.6 505.8 304.5 502.2 302.2 500.5 298.6L474.7 244.8 487.9 208.6 506.6 258.7V252.2Z" fill="url(#paint16_linear_1535_15000)"/><path d="M506.6 252.2 520.9 252.6V293.7L520.7 294.2C520.6 300.1 515.7 304.7 509.8 304.6 505.8 304.5 502.2 302.2 500.5 298.6L474.7 244.8 488.8 219.8 506.6 258.7V252.2Z" fill="url(#paint17_linear_1535_15000)"/><path d="M506.6 258.7 501.3 300 483.8 263.6 488.9 210.6 506.6 258.7Z" fill="url(#paint18_radial_1535_15000)"/><path d="M267.4 93.3 186.9 58.9C174.8 59 165 68.9 165 80.9L214.1 139.3C226.1 139.2 267.4 105.4 267.4 93.3Z" fill="url(#paint19_linear_1535_15000)"/><path d="M466.7 368.2H234.6C222.4 368.2 212.5 358.3 212.5 346.1V114C212.5 101.8 222.4 91.9 234.6 91.9H466.7C478.9 91.9 488.8 101.8 488.8 114V346.1C488.8 358.2 478.9 368.2 466.7 368.2Z" fill="url(#paint20_linear_1535_15000)"/><path d="M466.7 368.2H234.6C222.4 368.2 212.5 358.3 212.5 346.1V114C212.5 101.8 222.4 91.9 234.6 91.9H466.7C478.9 91.9 488.8 101.8 488.8 114V346.1C488.8 358.2 478.9 368.2 466.7 368.2Z" fill="url(#paint21_radial_1535_15000)"/><path d="M199.4 335.3C199.3 335.2 199.2 335.1 199.1 335 198.9 335.1 198.8 335.1 198.6 335.2L199.4 335.3Z" fill="url(#paint22_linear_1535_15000)"/><path d="M183.1 269.1C183.1 274.2 182.1 278.3 180.9 278.3 180.8 278.3 180.8 278.3 180.7 278.3 179.6 277.9 178.7 273.9 178.7 269.2 178.7 264.1 179.7 260 180.9 260H181C182.1 260.1 183.1 264.1 183.1 269.1Z" fill="url(#paint23_linear_1535_15000)"/><path d="M242.029 179.361C242.029 193.814 251.632 206.683 266.778 206.683 276.974 206.683 283.31 201.338 287.369 194.606V205.891H294.892V125.31H287.27V164.116C283.013 157.879 276.974 152.138 266.778 152.138 251.83 152.138 242.029 165.601 242.029 179.361ZM268.362 199.853C256.779 199.853 249.85 190.448 249.85 179.559 249.85 168.175 256.779 158.968 268.362 158.968 279.35 158.968 287.369 168.769 287.369 179.262 287.369 190.151 279.548 199.853 268.362 199.853ZM359.125 181.836C359.223 181.044 359.223 180.153 359.223 179.262 359.223 163.819 350.611 152.138 334.277 152.138 319.428 152.138 308.539 165.007 308.539 179.361 308.539 194.606 320.022 206.782 335.366 206.782 345.859 206.782 355.363 201.041 358.531 190.844L351.601 188.666C349.126 196.091 343.087 199.952 335.267 199.952 324.972 199.952 316.953 192.131 316.359 181.836H359.125ZM316.458 175.302C317.745 166.492 325.071 158.869 334.277 158.869 344.374 158.869 350.413 165.7 351.403 175.302H316.458ZM372.53 125.211V205.891H380.351V125.211H372.53Z" fill="#393944"/><path d="M188 236.2 166.2 254.8 180.9 259.9H180.8C179.6 259.9 178.6 264 178.6 269.1 178.6 273.9 179.5 277.8 180.6 278.2 180.6 278.2 143.2 268.3 139 265 134.8 261.6 134.3 254.2 140.1 247.5 145.9 240.8 175.6 212.7 179.5 210.6 183.4 208.6 188 236.2 188 236.2Z" fill="url(#paint24_linear_1535_15000)"/><path d="M188 236.2 166.2 254.8 180.9 259.9H180.8C179.6 259.9 178.6 264 178.6 269.1 178.6 273.9 179.5 277.8 180.6 278.2 180.6 278.2 143.2 268.3 139 265 134.8 261.6 134.3 254.2 140.1 247.5 145.9 240.8 175.6 212.7 179.5 210.6 183.4 208.6 188 236.2 188 236.2Z" fill="url(#paint25_radial_1535_15000)"/><path d="M188 236.2 166.2 254.8 180.9 259.9H180.8C179.6 259.9 178.6 264 178.6 269.1 178.6 273.9 179.5 277.8 180.6 278.2 180.6 278.2 143.2 268.3 139 265 134.8 261.6 134.3 254.2 140.1 247.5 145.9 240.8 175.6 212.7 179.5 210.6 183.4 208.6 188 236.2 188 236.2Z" fill="url(#paint26_linear_1535_15000)"/><path d="M188 236.2 166.2 254.8 180.9 259.9H180.8C179.6 259.9 178.6 264 178.6 269.1 178.6 273.9 179.5 277.8 180.6 278.2 180.6 278.2 143.2 268.3 139 265 134.8 261.6 134.3 254.2 140.1 247.5 145.9 240.8 175.6 212.7 179.5 210.6 183.4 208.6 188 236.2 188 236.2Z" fill="url(#paint27_linear_1535_15000)" opacity=".2704"/><path d="M234.6 368.2C222.4 368.2 212.5 358.3 212.5 346.1V114C212.5 101.8 222.4 91.9 234.6 91.9H466.7C478.9 91.9 488.8 101.8 488.8 114 488.8 114 474.6 193.6 423.2 257.4 352 345.9 234.6 368.2 234.6 368.2Z" fill="#ffffff" opacity=".19"/><path d="M190.8 271.8C196.2 273.4 201.1 266.8 201.1 266.8 201.1 266.8 202 267.3 202.9 267.6 201.8 273 204.2 274.3 205.4 274.5 206.6 274.8 206.7 272.4 207.5 270 208.9 265.9 209.2 264.5 207 263.4 204.7 262.2 201.1 260.2 199.3 260.1 197.5 260 190.7 264.4 188.5 264.1 186.4 264 185.4 270.2 190.8 271.8Z" fill="url(#paint28_linear_1535_15000)"/><path d="M176.1 333.9C176.1 333.9 178.4 260.1 229.3 261.7 268.1 262.9 273 289.6 283.4 303.5 305.6 332.9 341 311.4 367.2 299.5" stroke="#233b67" stroke-miterlimit="10" stroke-width="10"/><path d="M188.6 264.3 199.3 263.6C200.5 263.5 201.7 263.8 202.8 264.3 205.4 265.6 208 266.2 212 267.5H212.1C212.4 267.6 212.6 267.7 212.8 267.8 212.8 267.8 212.8 267.8 212.9 267.8 214.8 268.9 214 272.3 211.8 272.3 211.8 272.3 211.8 272.3 211.7 272.3V272.4H211.8C214 272.9 212.9 277.6 210.5 277.2 210.4 277.2 210.2 277.2 210.1 277.1 212.2 278.4 210.9 281.9 208.7 281.5 208.5 281.5 208.4 281.4 208.2 281.4 208.2 281.4 208.2 281.5 208.1 281.5 209.6 282 209.5 285.1 207.9 285.3 207.4 285.4 206.9 285.4 206.4 285.4 205.1 285.4 203.7 286.3 198.7 285.6 194.5 285 189.8 280.9 185.5 278.8 185.5 278.8 183.5 277.9 179.3 276 179.3 276 177.3 269.9 179.5 261.6L188.6 264.3Z" fill="url(#paint29_linear_1535_15000)"/><path d="M181.9 351.2H168.1C166 351.2 164.3 349.5 164.3 347.4V336.7C164.3 334.6 166 332.9 168.1 332.9H181.9C184 332.9 185.7 334.6 185.7 336.7V347.4C185.7 349.5 184 351.2 181.9 351.2Z" fill="url(#paint30_linear_1535_15000)"/><path d="M140.7 437.3H121.7C119.6 437.3 117.9 435.6 117.9 433.5V431C117.9 428.9 119.6 427.2 121.7 427.2H140.7C142.8 427.2 144.5 428.9 144.5 431V433.6C144.5 435.6 142.8 437.3 140.7 437.3Z" fill="url(#paint31_linear_1535_15000)"/><path d="M242.4 395.4C242.4 416.3 225.3 433.4 204.4 433.4H122.4C101.5 433.4 84.3999 416.3 84.3999 395.4V390.7C84.3999 371.1 100.2 352.2 119.6 348.9L202.3 334.5C224.4 330.7 242.4 345.9 242.4 368.3V395.4Z" fill="url(#paint32_linear_1535_15000)"/><path d="M248.5 433.3C254.8 425.1 258.6 414.9 258.6 403.8 258.6 377.1 236.9 355.4 210.2 355.4 183.5 355.4 161.8 377.1 161.8 403.8 161.8 414.9 165.6 425.1 171.9 433.3H248.5Z" fill="url(#paint33_linear_1535_15000)"/><path d="M210.1 444.5C232.578 444.5 250.8 426.278 250.8 403.8 250.8 381.322 232.578 363.1 210.1 363.1 187.622 363.1 169.4 381.322 169.4 403.8 169.4 426.278 187.622 444.5 210.1 444.5Z" fill="url(#paint34_linear_1535_15000)"/><path d="M210.1 436.9C228.381 436.9 243.2 422.081 243.2 403.8 243.2 385.519 228.381 370.7 210.1 370.7 191.819 370.7 177 385.519 177 403.8 177 422.081 191.819 436.9 210.1 436.9Z" fill="url(#paint35_linear_1535_15000)"/><path d="M231.5 386.9C240.9 398.7 238.9 415.9 227.1 425.2 215.3 434.6 198.1 432.6 188.8 420.8 179.4 409 181.4 391.8 193.2 382.5 205 373.1 222.1 375.1 231.5 386.9Z" fill="url(#paint36_linear_1535_15000)"/><path d="M207.7 399.9 206.8 400.6C205.7 401.5 204.2 401.4 203.1 400.6L193.3 392.4C191.9 391.2 191.9 389 193.4 387.9L198.3 384C199.7 382.9 201.9 383.3 202.7 385L208.5 396.4C209.1 397.5 208.8 399 207.7 399.9Z" fill="url(#paint37_linear_1535_15000)"/><path d="M213.4 407.1 212.5 407.8C211.4 408.7 211.1 410.2 211.7 411.4L217.5 422.8C218.3 424.4 220.5 424.9 221.9 423.8L226.8 419.9C228.2 418.8 228.3 416.6 226.9 415.4L217.1 407.2C216.1 406.3 214.5 406.2 213.4 407.1Z" fill="url(#paint38_linear_1535_15000)"/><path d="M214.1 401.4 213.4 400.5C212.5 399.4 212.6 397.9 213.4 396.8L221.6 387C222.8 385.6 225 385.6 226.1 387.1L230 392C231.1 393.4 230.7 395.6 229 396.4L217.6 402.2C216.5 402.8 214.9 402.5 214.1 401.4Z" fill="url(#paint39_linear_1535_15000)"/><path d="M206.8 407.1 206.1 406.2C205.2 405.1 203.7 404.8 202.5 405.4L191.1 411.2C189.5 412 189 414.2 190.1 415.6L194 420.5C195.1 421.9 197.3 422 198.5 420.6L206.7 410.8C207.7 409.8 207.7 408.2 206.8 407.1Z" fill="url(#paint40_linear_1535_15000)"/><path d="M167.1 398.5H85.0001C83.1001 398.5 81.6001 400.1 81.6001 401.9 81.6001 403.8 83.2001 405.3 85.0001 405.3H166.5C166.6 403 166.8 400.7 167.1 398.5Z" fill="url(#paint41_linear_1535_15000)"/><path d="M136.5 439.6C136.5 442.5 134.1 444.9 131.2 444.9 128.3 444.9 125.9 442.5 125.9 439.6 125.9 436.7 128.3 434.3 131.2 434.3 134.1 434.2 136.5 436.6 136.5 439.6Z" fill="url(#paint42_linear_1535_15000)"/><path d="M369.6 304.9 522.9 235.1 518.4 225.3 365.1 295.1 369.6 304.9Z" fill="#233b67"/><path d="M367.1 307.8 386.2 299.1 380.1 285.7 361 294.3 367.1 307.8Z" fill="url(#paint43_linear_1535_15000)"/><path d="M441.2 274.3 664.8 172.5 658.7 159 435 260.9 441.2 274.3Z" fill="url(#paint44_linear_1535_15000)"/><path d="M624.5 193.2 668 173 660.1 156 616.6 176.1 624.5 193.2Z" fill="url(#paint45_linear_1535_15000)"/><path d="M673.3 206.9 665.2 207C661.6 207 658.5 204.1 658.5 200.4L657.7 128.7C657.7 125.1 660.6 122 664.3 122L672.4 121.9 673.3 206.9Z" fill="url(#paint46_linear_1535_15000)"/><path d="M686.8 225.6 674.9 225.7C671.3 225.7 668.2 222.8 668.2 219.1L667 109.8C667 106.2 669.9 103.1 673.6 103.1L685.5 103 686.8 225.6Z" fill="url(#paint47_linear_1535_15000)"/><path d="M524.5 230.7C524.5 230.7 522.2 237.9 521.2 240.6 520.2 243.3 520.1 252.6 520.1 252.6L507.8 252.3C507.8 252.3 506.1 246 506.1 244 506.1 242 513.4 239.4 513.4 239.4L524.5 230.7Z" fill="url(#paint48_linear_1535_15000)"/><path d="M524.5 229.9C524.1 228.8 519.2 225.3 518.3 224.7 517.1 223.9 514.5 225.4 516.1 227.6 517.4 229.4 518.6 231.2 518.6 231.2 518.6 231.2 513.8 227.3 513 226.4 512.1 225.6 510.4 224.9 509.6 225.6 508.4 226.6 508.7 228.1 509.7 229.2 510.7 230.3 513.8 234.5 513.8 234.5L507.3 229.2C507.3 229.2 505.7 228.2 504.6 229.3 503.2 230.8 504.8 232.1 505.7 232.9 506.5 233.7 510.2 237.9 510.2 237.9L509.7 238.4C509.7 238.4 506.6 234.2 505.6 233.6 504.5 233 503.4 234.1 503.6 235.6 503.7 236.6 506 240.5 506 240.5 506 240.5 505.8 242.4 505.9 243.3 506 244.1 506.4 245 506.9 245.5 507.4 246 512.2 246.2 515.4 243.7 518.6 241.2 520.3 239.2 521.7 236.6 523 234.1 525 231.4 524.5 229.9Z" fill="url(#paint49_linear_1535_15000)"/><path d="M228.3 160.4C258.676 160.4 283.3 135.776 283.3 105.4 283.3 75.0244 258.676 50.4 228.3 50.4 197.925 50.4 173.3 75.0244 173.3 105.4 173.3 135.776 197.925 160.4 228.3 160.4Z" fill="url(#paint50_radial_1535_15000)"/></g></svg>